<mxfile host="app.diagrams.net" agent="Mozilla/5.0 (Macintosh; Intel Mac OS X 10_15_7) AppleWebKit/537.36 (KHTML, like Gecko) Chrome/128.0.0.0 Safari/537.36" version="24.8.0">
  <diagram name="Page-1" id="RZKibCni7g9kxZXS_z_n">
    <mxGraphModel dx="984" dy="625" grid="1" gridSize="10" guides="1" tooltips="1" connect="1" arrows="1" fold="1" page="1" pageScale="1" pageWidth="827" pageHeight="1169" math="0" shadow="0">
      <root>
        <mxCell id="0" />
        <mxCell id="1" parent="0" />
        <mxCell id="U2EwRurGT0Z17VS3B1_g-1" value="Player" style="swimlane;fontStyle=1;align=center;verticalAlign=top;childLayout=stackLayout;horizontal=1;startSize=26;horizontalStack=0;resizeParent=1;resizeParentMax=0;resizeLast=0;collapsible=1;marginBottom=0;whiteSpace=wrap;html=1;" parent="1" vertex="1">
          <mxGeometry x="490" y="380" width="220" height="240" as="geometry" />
        </mxCell>
        <mxCell id="U2EwRurGT0Z17VS3B1_g-2" value="- name: String&lt;div&gt;- wins: int&lt;/div&gt;&lt;div&gt;&lt;span style=&quot;background-color: initial;&quot;&gt;- gamesPlayed: int&lt;/span&gt;&lt;br&gt;&lt;/div&gt;&lt;div&gt;- playerSymbol = &quot;X&quot;&lt;/div&gt;" style="text;strokeColor=none;fillColor=none;align=left;verticalAlign=top;spacingLeft=4;spacingRight=4;overflow=hidden;rotatable=0;points=[[0,0.5],[1,0.5]];portConstraint=eastwest;whiteSpace=wrap;html=1;" parent="U2EwRurGT0Z17VS3B1_g-1" vertex="1">
          <mxGeometry y="26" width="220" height="84" as="geometry" />
        </mxCell>
        <mxCell id="U2EwRurGT0Z17VS3B1_g-3" value="" style="line;strokeWidth=1;fillColor=none;align=left;verticalAlign=middle;spacingTop=-1;spacingLeft=3;spacingRight=3;rotatable=0;labelPosition=right;points=[];portConstraint=eastwest;strokeColor=inherit;" parent="U2EwRurGT0Z17VS3B1_g-1" vertex="1">
          <mxGeometry y="110" width="220" height="8" as="geometry" />
        </mxCell>
        <mxCell id="U2EwRurGT0Z17VS3B1_g-4" value="+ getName(): String&lt;div&gt;+ setName(String name): Void&lt;/div&gt;&lt;div&gt;+ getPlayerSymbol(): String&lt;/div&gt;&lt;div&gt;+ getWins(): int&lt;/div&gt;&lt;div&gt;+ incrementWins(): Void&lt;/div&gt;&lt;div&gt;+ getGamesPlayed(): int&lt;/div&gt;&lt;div&gt;+ incrementGamesPlayed(): Void&lt;/div&gt;" style="text;strokeColor=none;fillColor=none;align=left;verticalAlign=top;spacingLeft=4;spacingRight=4;overflow=hidden;rotatable=0;points=[[0,0.5],[1,0.5]];portConstraint=eastwest;whiteSpace=wrap;html=1;" parent="U2EwRurGT0Z17VS3B1_g-1" vertex="1">
          <mxGeometry y="118" width="220" height="122" as="geometry" />
        </mxCell>
        <mxCell id="U2EwRurGT0Z17VS3B1_g-6" value="Board" style="swimlane;fontStyle=1;align=center;verticalAlign=top;childLayout=stackLayout;horizontal=1;startSize=26;horizontalStack=0;resizeParent=1;resizeParentMax=0;resizeLast=0;collapsible=1;marginBottom=0;whiteSpace=wrap;html=1;" parent="1" vertex="1">
          <mxGeometry x="90" y="370" width="300" height="280" as="geometry" />
        </mxCell>
        <mxCell id="U2EwRurGT0Z17VS3B1_g-7" value="- rowCharacters: ArrayList&amp;lt;Character&amp;gt;&lt;div&gt;- columnDigits: ArrayList&amp;lt;Integer&amp;gt;&lt;/div&gt;&lt;div&gt;- hiddenBoard: ArrayList&amp;lt;ArrayList&amp;lt;String&amp;gt;&amp;gt;&lt;/div&gt;&lt;div&gt;- visibleBoard: ArrayList&amp;lt;ArrayList&amp;lt;String&amp;gt;&amp;gt;&lt;/div&gt;&lt;div&gt;- bombSymbol = &quot;*&quot; (star)&lt;/div&gt;" style="text;strokeColor=none;fillColor=none;align=left;verticalAlign=top;spacingLeft=4;spacingRight=4;overflow=hidden;rotatable=0;points=[[0,0.5],[1,0.5]];portConstraint=eastwest;whiteSpace=wrap;html=1;" parent="U2EwRurGT0Z17VS3B1_g-6" vertex="1">
          <mxGeometry y="26" width="300" height="94" as="geometry" />
        </mxCell>
        <mxCell id="U2EwRurGT0Z17VS3B1_g-8" value="" style="line;strokeWidth=1;fillColor=none;align=left;verticalAlign=middle;spacingTop=-1;spacingLeft=3;spacingRight=3;rotatable=0;labelPosition=right;points=[];portConstraint=eastwest;strokeColor=inherit;" parent="U2EwRurGT0Z17VS3B1_g-6" vertex="1">
          <mxGeometry y="120" width="300" height="8" as="geometry" />
        </mxCell>
        <mxCell id="U2EwRurGT0Z17VS3B1_g-9" value="+ createBoards(difficulty: int): Void&lt;div&gt;+ placeBombs(difficulty: int): Void&lt;/div&gt;&lt;div&gt;+ printVisibleBoard(): Void&lt;/div&gt;&lt;div&gt;&lt;span style=&quot;background-color: initial;&quot;&gt;+ isSquareAvailable(squareValue: String): boolean&lt;/span&gt;&lt;br&gt;&lt;/div&gt;&lt;div&gt;+ isSquareBomb(squareValue: String): boolean&lt;/div&gt;&lt;div&gt;+ placePlayerSymbol(squareValue: String): Void&lt;/div&gt;&lt;div&gt;+ placeBombAdjacentHints(): Void&lt;/div&gt;&lt;div&gt;+ isWin(): boolean&lt;/div&gt;&lt;div&gt;&lt;div&gt;+ resetBoards(): Void&lt;/div&gt;&lt;/div&gt;&lt;div&gt;&lt;br&gt;&lt;/div&gt;" style="text;strokeColor=none;fillColor=none;align=left;verticalAlign=top;spacingLeft=4;spacingRight=4;overflow=hidden;rotatable=0;points=[[0,0.5],[1,0.5]];portConstraint=eastwest;whiteSpace=wrap;html=1;" parent="U2EwRurGT0Z17VS3B1_g-6" vertex="1">
          <mxGeometry y="128" width="300" height="152" as="geometry" />
        </mxCell>
        <mxCell id="U2EwRurGT0Z17VS3B1_g-10" value="GameManager" style="swimlane;fontStyle=1;align=center;verticalAlign=top;childLayout=stackLayout;horizontal=1;startSize=26;horizontalStack=0;resizeParent=1;resizeParentMax=0;resizeLast=0;collapsible=1;marginBottom=0;whiteSpace=wrap;html=1;" parent="1" vertex="1">
          <mxGeometry x="290" y="20" width="300" height="290" as="geometry" />
        </mxCell>
        <mxCell id="U2EwRurGT0Z17VS3B1_g-11" value="- scanner: Scanner&lt;div&gt;- player: Player&lt;/div&gt;&lt;div&gt;- board: Board&lt;/div&gt;&lt;div&gt;- difficulty: int&lt;/div&gt;&lt;div&gt;- userInput: String&lt;/div&gt;&lt;div&gt;-&amp;nbsp;&lt;span style=&quot;background-color: initial;&quot;&gt;scoreboard: String[]&lt;/span&gt;&lt;/div&gt;" style="text;strokeColor=none;fillColor=none;align=left;verticalAlign=top;spacingLeft=4;spacingRight=4;overflow=hidden;rotatable=0;points=[[0,0.5],[1,0.5]];portConstraint=eastwest;whiteSpace=wrap;html=1;" parent="U2EwRurGT0Z17VS3B1_g-10" vertex="1">
          <mxGeometry y="26" width="300" height="124" as="geometry" />
        </mxCell>
        <mxCell id="U2EwRurGT0Z17VS3B1_g-12" value="" style="line;strokeWidth=1;fillColor=none;align=left;verticalAlign=middle;spacingTop=-1;spacingLeft=3;spacingRight=3;rotatable=0;labelPosition=right;points=[];portConstraint=eastwest;strokeColor=inherit;" parent="U2EwRurGT0Z17VS3B1_g-10" vertex="1">
          <mxGeometry y="150" width="300" height="8" as="geometry" />
        </mxCell>
        <mxCell id="U2EwRurGT0Z17VS3B1_g-13" value="+ run(): Void&lt;div&gt;- promptCreatePlayer(): Void&lt;/div&gt;&lt;div&gt;- promptGameDifficulty(): Void&lt;/div&gt;&lt;div&gt;- createGame(difficulty: int): Void&lt;/div&gt;&lt;div&gt;- promptPlayerPlaceSquare(): Void&lt;/div&gt;&lt;div&gt;- evaluateRound(userInput: String): Void&lt;/div&gt;&lt;div&gt;- resetGame(): Void&lt;/div&gt;&lt;div&gt;- checkQuitCommand(userInput: String): Void&lt;/div&gt;" style="text;strokeColor=none;fillColor=none;align=left;verticalAlign=top;spacingLeft=4;spacingRight=4;overflow=hidden;rotatable=0;points=[[0,0.5],[1,0.5]];portConstraint=eastwest;whiteSpace=wrap;html=1;" parent="U2EwRurGT0Z17VS3B1_g-10" vertex="1">
          <mxGeometry y="158" width="300" height="132" as="geometry" />
        </mxCell>
        <mxCell id="U2EwRurGT0Z17VS3B1_g-14" value="" style="endArrow=diamondThin;endFill=1;endSize=24;html=1;rounded=0;exitX=0.523;exitY=-0.004;exitDx=0;exitDy=0;exitPerimeter=0;entryX=0.307;entryY=1.025;entryDx=0;entryDy=0;entryPerimeter=0;" parent="1" source="U2EwRurGT0Z17VS3B1_g-6" target="U2EwRurGT0Z17VS3B1_g-13" edge="1">
          <mxGeometry width="160" relative="1" as="geometry">
            <mxPoint x="500" y="450" as="sourcePoint" />
            <mxPoint x="450" y="320" as="targetPoint" />
          </mxGeometry>
        </mxCell>
        <mxCell id="U2EwRurGT0Z17VS3B1_g-15" value="" style="endArrow=diamondThin;endFill=1;endSize=24;html=1;rounded=0;entryX=0.587;entryY=1.008;entryDx=0;entryDy=0;entryPerimeter=0;exitX=0.218;exitY=0.004;exitDx=0;exitDy=0;exitPerimeter=0;" parent="1" source="U2EwRurGT0Z17VS3B1_g-1" target="U2EwRurGT0Z17VS3B1_g-13" edge="1">
          <mxGeometry width="160" relative="1" as="geometry">
            <mxPoint x="500" y="360" as="sourcePoint" />
            <mxPoint x="660" y="360" as="targetPoint" />
          </mxGeometry>
        </mxCell>
      </root>
    </mxGraphModel>
  </diagram>
</mxfile>
